<svg xmlns="http://www.w3.org/2000/svg" xmlns:xlink="http://www.w3.org/1999/xlink" x="0px" y="0px" viewBox="0 0 64 64" width="64" height="64"><title>position user</title><g class="nc-icon-wrapper" stroke-linecap="round" stroke-linejoin="round" stroke-width="2" fill="#ffffff" stroke="#ffffff"><path data-cap="butt" data-color="color-2" fill="none" stroke-miterlimit="10" d="M50,45.599 c7.287,1.46,12,3.783,12,6.401c0,4.418-13.431,8-30,8S2,56.418,2,52c0-2.617,4.713-4.941,12-6.401"/> <path fill="none" stroke="#ffffff" stroke-miterlimit="10" d="M50,51H14v-9.483 c0-3.55,2.328-6.669,5.733-7.677C22.92,32.896,27.208,32,32,32c4.713,0,9.027,0.911,12.25,1.864c3.411,1.008,5.75,4.125,5.75,7.682 V51z"/> <path fill="none" stroke="#ffffff" stroke-miterlimit="10" d="M22,14 c0-5.523,4.477-10,10-10s10,4.477,10,10s-4.477,12-10,12S22,19.523,22,14z"/></g></svg>