<?xml version="1.0" encoding="UTF-8" standalone="no"?>
<!-- Created with Inkscape (http://www.inkscape.org/) -->

<svg
   xmlns:dc="http://purl.org/dc/elements/1.1/"
   xmlns:cc="http://creativecommons.org/ns#"
   xmlns:rdf="http://www.w3.org/1999/02/22-rdf-syntax-ns#"
   xmlns:svg="http://www.w3.org/2000/svg"
   xmlns="http://www.w3.org/2000/svg"
   xmlns:sodipodi="http://sodipodi.sourceforge.net/DTD/sodipodi-0.dtd"
   xmlns:inkscape="http://www.inkscape.org/namespaces/inkscape"
   width="45.119125mm"
   height="45.068562mm"
   viewBox="0 0 45.119125 45.068562"
   version="1.1"
   id="svg4224"
   inkscape:version="0.92.4 (5da689c313, 2019-01-14)"
   sodipodi:docname="logo_white.svg">
  <defs
     id="defs4218" />
  <sodipodi:namedview
     id="base"
     pagecolor="#ffffff"
     bcommandcolor="#666666"
     bcommandopacity="1.0"
     inkscape:pageopacity="0.0"
     inkscape:pageshadow="2"
     inkscape:zoom="1.4"
     inkscape:cx="156.85828"
     inkscape:cy="66.146542"
     inkscape:document-units="mm"
     inkscape:current-layer="layer1"
     showgrid="false"
     inkscape:window-width="1536"
     inkscape:window-height="801"
     inkscape:window-x="1912"
     inkscape:window-y="-8"
     inkscape:window-maximized="1" />
  <metadata
     id="metadata4221">
    <rdf:RDF>
      <cc:Work
         rdf:about="">
        <dc:format>image/svg+xml</dc:format>
        <dc:type
           rdf:resource="http://purl.org/dc/dcmitype/StillImage" />
        <dc:title></dc:title>
      </cc:Work>
    </rdf:RDF>
  </metadata>
  <g
     inkscape:label="Calque 1"
     inkscape:groupmode="layer"
     id="layer1"
     transform="translate(-87.809482,-103.62048)">
    <path
       style="display:inline;fill:#ffffff;fill-opacity:1;stroke-width:0.07440599"
       d="m 108.48804,148.61416 c -8.24697,-0.72033 -15.423234,-5.83237 -18.759864,-13.36368 -2.1543,-4.8626 -2.50745,-10.37368 -0.99376,-15.50808 1.49339,-5.06551 4.74585,-9.42963 9.26238,-12.42815 1.08458,-0.72004 3.251484,-1.82888 4.389964,-2.2464 8.04357,-2.94985 16.77767,-1.327 23.0702,4.28658 3.62612,3.23486 6.19561,7.72446 7.09368,12.39458 0.33577,1.74603 0.37985,2.26393 0.37791,4.43957 -0.002,2.61944 -0.1792,3.95348 -0.82368,6.21287 -2.06614,7.24338 -7.82169,13.06599 -15.14217,15.3186 -2.59071,0.7972 -5.75815,1.13137 -8.47466,0.89411 z m -9.738204,-10.5315 c 2.188904,-0.71875 5.150484,-2.78693 7.324314,-5.11482 0.40565,-0.4344 0.75769,-0.78982 0.78232,-0.78982 0.0247,0 0.21606,0.25949 0.4254,0.57664 0.5574,0.8445 1.3047,1.75129 1.80951,2.19573 0.83623,0.73623 1.33708,0.87732 1.99598,0.56228 0.45916,-0.21954 1.79014,-1.56886 2.34977,-2.38213 0.24494,-0.35598 0.48897,-0.64894 0.54229,-0.65106 0.0533,-0.002 0.28539,0.20543 0.51575,0.4612 1.12659,1.25092 2.64654,2.56326 4.0688,3.51306 2.79764,1.86829 5.15299,2.47176 5.95005,1.52448 0.90566,-1.07629 0.29125,-6.33699 -1.28792,-11.02777 -1.01264,-3.0079 -2.02491,-5.13932 -3.47158,-7.30978 -1.63739,-2.4566 -3.32573,-4.05774 -5.314,-5.03955 -0.51154,-0.25259 -0.94505,-0.47029 -0.96337,-0.48376 -0.0183,-0.0134 0.13605,-0.17263 0.34302,-0.35369 0.46451,-0.40635 0.58225,-0.66708 0.51344,-1.13695 -0.0283,-0.1937 -0.0754,-0.52035 -0.1046,-0.72587 -0.0687,-0.48383 -0.30309,-0.8557 -0.66921,-1.06147 -0.3149,-0.17698 -0.54041,-0.20566 -0.74716,-0.095 -0.0883,0.0473 -0.30737,0.0218 -0.68336,-0.0795 -0.82856,-0.22321 -2.16657,-0.26607 -3.00879,-0.0964 -0.3683,0.0742 -0.88894,0.13698 -1.15696,0.1395 -0.5478,0.005 -0.76312,0.10909 -1.07616,0.5195 -0.1917,0.25134 -0.2855,0.62262 -0.37734,1.4935 -0.0484,0.45856 0.11128,0.7492 0.60122,1.09453 0.18431,0.12992 0.33511,0.2563 0.33511,0.28085 0,0.0246 -0.28759,0.17416 -0.6391,0.33246 -4.0099,1.80596 -7.602404,7.10308 -9.665814,14.25216 -1.1642,4.03357 -1.61829,8.03749 -1.03867,9.15835 0.31597,0.61102 1.26238,0.69803 2.64706,0.24335 z m 23.986954,-0.32885 c -1.55297,-0.37912 -3.50632,-1.44456 -5.31093,-2.89683 -0.82032,-0.66015 -2.11688,-1.91232 -2.7197,-2.62658 l -0.36398,-0.43127 0.48831,-0.94524 c 1.89575,-3.66971 2.50382,-7.62282 1.71869,-11.17304 -0.36219,-1.6377 -0.84832,-2.7014 -1.87592,-4.10469 -0.17846,-0.24372 0.0318,-0.15497 0.71386,0.30121 1.68556,1.12745 3.47159,3.24481 4.8938,5.80168 2.2792,4.09758 3.98735,10.09174 4.00964,14.07045 0.006,1.21729 -0.0684,1.66416 -0.31809,1.89013 -0.17219,0.15584 -0.81988,0.21569 -1.23568,0.11418 z m -25.943504,-0.0673 c -0.22526,-0.14097 -0.3107,-0.59214 -0.3034,-1.60217 0.0165,-2.2894 0.65263,-5.5047 1.72957,-8.74268 1.73416,-5.21402 4.162954,-9.08183 7.097884,-11.30325 0.49702,-0.37619 1.07512,-0.71307 1.12981,-0.65838 0.0154,0.0154 -0.1418,0.26052 -0.3494,0.54464 -0.49282,0.67446 -1.12619,1.9814 -1.36818,2.82315 -0.38834,1.35089 -0.50305,2.24658 -0.50981,3.9807 -0.006,1.66022 0.0735,2.41693 0.40904,3.86909 0.31811,1.37681 0.83737,2.81523 1.47481,4.08546 0.31152,0.62076 0.37434,0.80532 0.31659,0.93008 -0.10541,0.22771 -1.50711,1.68495 -2.30146,2.39266 -2.28258,2.03361 -5.132084,3.62232 -6.679984,3.72436 -0.29795,0.0196 -0.57418,7.9e-4 -0.64547,-0.0436 z m 13.160534,-2.83549 c -0.62856,-0.41634 -1.689,-1.66864 -2.43723,-2.87818 l -0.24199,-0.3912 0.20491,-0.27845 c 1.10224,-1.49776 2.03451,-3.2611 2.51274,-4.75268 0.17531,-0.54678 0.34257,-0.99424 0.37168,-0.99436 0.0291,-1.5e-4 0.0902,0.14208 0.13571,0.316 0.44696,1.70745 1.5075,3.85959 2.6983,5.47561 0.40287,0.54675 0.41996,0.45771 -0.27365,1.42552 -0.85428,1.19199 -2.04606,2.30658 -2.46629,2.30658 -0.0873,0 -0.31416,-0.10298 -0.50418,-0.22884 z m 3.55675,-4.16892 c -1.54239,-2.09518 -2.57259,-4.77166 -2.78932,-7.24672 -0.10673,-1.21887 -0.11341,-1.24207 -0.34955,-1.21379 -0.10698,0.0128 -0.21985,0.0735 -0.25083,0.1349 -0.031,0.0614 -0.0928,0.54689 -0.13745,1.07889 -0.0446,0.53199 -0.1338,1.21839 -0.19817,1.52531 -0.20322,0.96904 -0.71285,2.38398 -1.21937,3.38546 -0.60787,1.20184 -1.46604,2.5084 -1.62718,2.47737 -0.13815,-0.0266 -0.77895,-1.41156 -1.16113,-2.50954 -0.75081,-2.157 -1.0348,-4.14324 -0.9221,-6.44914 0.13146,-2.68943 0.95256,-4.84924 2.4047,-6.32519 1.06838,-1.08589 1.81679,-1.35176 3.57167,-1.2688 1.0424,0.0493 1.40851,0.14618 2.01281,0.53269 2.11143,1.35052 3.39864,4.39658 3.39615,8.03659 -10e-4,1.87467 -0.27503,3.45188 -0.92336,5.32 -0.34006,0.97987 -1.27445,2.97622 -1.39302,2.97622 -0.0437,0 -0.22993,-0.20441 -0.41385,-0.45425 z m -5.32501,-17.05001 c -1.18696,-0.411 -1.43794,-0.95783 -0.62269,-1.35669 0.3651,-0.17863 0.5174,-0.33006 0.7435,-0.73925 0.1864,-0.33738 1.62967,-0.56389 2.73009,-0.42847 0.99042,0.12188 1.44501,0.27164 1.57398,0.51854 0.14905,0.28531 0.48203,0.58403 0.79828,0.71612 0.67416,0.28162 0.32913,0.92087 -0.70138,1.29947 -0.39025,0.14338 -0.48188,0.15049 -0.96728,0.0752 -0.51569,-0.08 -2.46887,-0.0516 -2.87998,0.0419 -0.10621,0.0242 -0.3956,-0.0303 -0.67452,-0.12682 z"
       id="path4216"
       inkscape:connector-curvature="0"
       sodipodi:nodetypes="csccsccccccccsccccccsccccccccccccccccscscccccccccccccccccssscccccccccccccccccccsccscccccccccccccsccccccccccc" />
  </g>
</svg>
