<?xml version="1.0" encoding="UTF-8" standalone="no"?>
<!-- Created with Inkscape (http://www.inkscape.org/) -->

<svg
   xmlns:dc="http://purl.org/dc/elements/1.1/"
   xmlns:cc="http://creativecommons.org/ns#"
   xmlns:rdf="http://www.w3.org/1999/02/22-rdf-syntax-ns#"
   xmlns:svg="http://www.w3.org/2000/svg"
   xmlns="http://www.w3.org/2000/svg"
   xmlns:sodipodi="http://sodipodi.sourceforge.net/DTD/sodipodi-0.dtd"
   xmlns:inkscape="http://www.inkscape.org/namespaces/inkscape"
   width="65.625801mm"
   height="11.028636mm"
   viewBox="0 0 65.625801 11.028636"
   version="1.1"
   id="svg4799"
   inkscape:version="0.92.4 (5da689c313, 2019-01-14)"
   sodipodi:docname="text_white.svg">
  <defs
     id="defs4793" />
  <sodipodi:namedview
     id="base"
     pagecolor="#ffffff"
     bcommandcolor="#666666"
     bcommandopacity="1.0"
     inkscape:pageopacity="0.0"
     inkscape:pageshadow="2"
     inkscape:zoom="0.35"
     inkscape:cx="-54.554166"
     inkscape:cy="277.98438"
     inkscape:document-units="mm"
     inkscape:current-layer="layer1"
     showgrid="false"
     inkscape:window-width="1536"
     inkscape:window-height="801"
     inkscape:window-x="1912"
     inkscape:window-y="-8"
     inkscape:window-maximized="1" />
  <metadata
     id="metadata4796">
    <rdf:RDF>
      <cc:Work
         rdf:about="">
        <dc:format>image/svg+xml</dc:format>
        <dc:type
           rdf:resource="http://purl.org/dc/dcmitype/StillImage" />
        <dc:title></dc:title>
      </cc:Work>
    </rdf:RDF>
  </metadata>
  <g
     inkscape:label="Calque 1"
     inkscape:groupmode="layer"
     id="layer1"
     transform="translate(17.693853,-211.35473)">
    <path
       style="display:inline;fill:#ffffff;fill-opacity:1;stroke-width:0.07440599"
       d="m 4.9638073,222.29009 c -1.15169,-0.21667 -1.87355,-0.60608 -2.75601,-1.48671 -1.00804,-1.00595 -1.46566002,-1.98756 -1.57111002,-3.37006 -0.11958,-1.56796 0.45596002,-3.04737 1.64212002,-4.22094 1.12511,-1.11318 2.16167,-1.53053 3.81354,-1.53547 0.54349,-0.001 0.91662,0.0417 1.32511,0.15375 0.69532,0.19075 1.30385,0.48974 1.30385,0.64061 0,0.1851 -0.46115,1.22475 -0.54325,1.22475 -0.0419,0 -0.22978,-0.0985 -0.41752,-0.21882 -0.41753,-0.26768 -0.84818,-0.37262 -1.53183,-0.37332 -1.39505,-0.001 -2.53184,0.55289 -3.27778,1.59822 -0.52994,0.74264 -0.72935,1.38579 -0.7262,2.34219 0.004,1.24997 0.32524,2.01107 1.20089,2.84631 0.48633,0.46388 1.12572,0.81516 1.70926,0.93907 0.55969,0.11885 1.40745,0.10366 1.88019,-0.0336 0.42343,-0.12302 1.31502,-0.61024 1.4796,-0.80854 0.0528,-0.0636 0.14217,-0.11573 0.19854,-0.11573 0.081,0 0.10251,0.17674 0.10251,0.84414 0,0.98855 0.004,0.98292 -0.78436,1.2819 -1.00687,0.38212 -2.04239,0.48145 -3.04755,0.29233 z m 13.4674787,0.07 c -0.0818,-0.019 -0.33297,-0.0704 -0.558048,-0.11447 -0.56211,-0.10991 -1.50994,-0.57938 -2.044362,-1.0126 -0.914558,-0.74138 -1.620758,-1.86617 -1.867228,-2.97401 -0.184962,-0.83135 -0.117591,-2.2546 0.141309,-2.98545 0.687501,-1.94075 2.486372,-3.37654 4.4841,-3.57903 1.721731,-0.17451 3.101189,0.30147 4.387289,1.51386 0.581023,0.54772 0.581311,0.5448 -0.113278,1.14894 l -0.45637,0.39694 -0.46138,-0.44247 c -0.253759,-0.24336 -0.60851,-0.53515 -0.78831,-0.64843 -0.771102,-0.48579 -1.760181,-0.65467 -2.684762,-0.45844 -0.77175,0.16379 -1.273889,0.43033 -1.86985,0.99254 -0.573418,0.54093 -0.963329,1.21912 -1.111639,1.93356 -0.130011,0.62623 -0.0546,1.8164 0.14768,2.33026 0.319749,0.81234 1.071711,1.62589 1.901981,2.05776 1.49061,0.77536 3.31856,0.36217 4.22587,-0.95522 0.281789,-0.40915 0.53331,-1.06439 0.45635,-1.1889 -0.0223,-0.0362 -0.549269,-0.0663 -1.170932,-0.0669 -0.621667,-4.5e-4 -1.177718,-0.0311 -1.235678,-0.0679 -0.0882,-0.0559 -0.0713,-0.1615 0.104129,-0.64991 0.115221,-0.32077 0.24256,-0.62565 0.282962,-0.67751 0.0565,-0.0726 0.495548,-0.0897 1.904828,-0.0744 l 1.831379,0.0198 -0.01651,0.72332 c -0.0285,1.25087 -0.295259,2.08094 -0.94439,2.93864 -0.6027,0.79636 -1.55049,1.44017 -2.502379,1.69981 -0.407961,0.11127 -1.765199,0.20433 -2.04279,0.14006 z m -36.106009,-5.44603 0.0191,-5.26422 h 0.74405 0.74407 l 0.0192,4.49753 c 0.0149,3.4846 0.04,4.51076 0.1116,4.55624 0.0508,0.0323 0.65197,0.0592 1.33586,0.0598 l 1.24343,0.001 0.082,0.31622 c 0.0451,0.17392 0.11318,0.43342 0.151261,0.57664 0.149889,0.56386 0.331539,0.52085 -2.199821,0.52085 h -2.26988 z m 5.56235,5.16876 c 0,-0.1555 4.1222704,-8.93049 4.2087405,-8.95908 0.0683,-0.0226 4.0051398,8.60156 4.0654098,8.90574 0.0185,0.0932 -0.10008,0.11161 -0.71971,0.11161 h -0.74181 l -0.41269,-0.93008 c -0.22697,-0.51154 -0.43922,-0.97193 -0.47166,-1.02308 -0.0444,-0.0701 -0.48662,-0.093 -1.79181,-0.093 h -1.73282 l -0.4932403,1.04168 -0.49325,1.04169 h -0.70858 c -0.52698,0 -0.70858,-0.0245 -0.70858,-0.0955 z m 5.2828303,-3.31349 c 0,-0.0895 -0.97032,-2.42183 -1.0362999,-2.49087 -0.031,-0.0324 -0.0888,-0.0157 -0.1285499,0.0372 -0.12987,0.17292 -1.06733,2.27957 -1.06733,2.39846 0,0.0998 0.1553199,0.11588 1.11609,0.11588 0.6138498,0 1.1160898,-0.0273 1.1160898,-0.0607 z m 17.6342197,-1.79685 c 0,-3.56904 0.0244,-5.21103 0.0776,-5.21103 0.0427,0 0.394531,0.27104 0.78183,0.60233 l 0.704191,0.60233 -0.01921,4.58749 -0.0191,4.58749 -0.76267,0.0212 -0.762661,0.0212 z m 13.318659,5.10719 c 0,-0.10989 4.886492,-10.61549 4.985153,-10.71771 0.0344,-0.0357 0.127748,0.0643 0.208298,0.22323 0.317482,0.62647 4.702551,10.42625 4.702551,10.50928 0,0.0646 -0.223801,0.083 -0.82295,0.0676 l -0.82297,-0.0211 -0.526629,-1.2091 -0.526632,-1.2091 h -2.21278 c -1.68385,0 -2.229278,0.0222 -2.281758,0.093 -0.038,0.0512 -0.282951,0.56176 -0.544502,1.13469 -0.261549,0.57292 -0.506569,1.08354 -0.5445,1.13469 -0.101089,0.13634 -1.613281,0.13107 -1.613281,-0.006 z m 6.437961,-3.92227 c 0.0744,-0.12046 -1.3227,-3.27468 -1.440659,-3.25245 -0.107852,0.0204 -1.4971,2.98562 -1.499031,3.19961 -7.94e-4,0.11959 0.116861,0.13021 1.445339,0.13021 0.921002,0 1.4639,-0.0281 1.494351,-0.0774 z m 4.871749,-1.22734 v -5.24823 l 0.762662,0.0212 0.762669,0.0212 0.01921,4.46033 c 0.0149,3.45483 0.04,4.47356 0.111598,4.51903 0.0508,0.0323 0.651971,0.0592 1.335861,0.0598 l 1.24343,0.001 0.082,0.31622 c 0.0451,0.17392 0.113191,0.43341 0.15127,0.57665 0.149881,0.56384 0.331481,0.52084 -2.19933,0.52084 h -2.26938 v -5.24823 z m 6.101292,0.001 v -5.24672 l 2.28799,0.0197 2.287979,0.0197 0.165362,0.63079 c 0.091,0.34693 0.140179,0.65596 0.109418,0.68673 -0.0308,0.0308 -0.77484,0.065 -1.653479,0.0761 l -1.597541,0.0201 v 1.52533 1.52532 l 1.243952,0.0204 1.243949,0.0203 0.11675,0.38885 c 0.0642,0.21386 0.136779,0.53114 0.161269,0.70507 l 0.0445,0.31622 h -1.306118 c -0.718381,0 -1.359101,0.0204 -1.423842,0.0452 -0.10183,0.039 -0.11769,0.24355 -0.11769,1.51737 0,1.27381 0.0159,1.47828 0.11769,1.51736 0.0647,0.0248 1.067242,0.0452 2.227791,0.0452 1.46906,0 2.125639,0.0252 2.161271,0.0828 0.06,0.097 0.326498,1.10186 0.328358,1.23791 7.94e-4,0.073 -0.68753,0.093 -3.19818,0.093 h -3.19945 v -5.24691 z"
       id="path4216"
       inkscape:connector-curvature="0"
       sodipodi:nodetypes="csccccssccccccccsscccccccscsccccccccccccccccccccccccccccccccscccccscccscccscccccsscccsccccccccccsccccsccccccccsccccccccccccsccccccccccccccccccscscsccsccc" />
  </g>
</svg>
